# xmcd
#
# Track frame offsets:
#	150
#	13760
#	27645
#	41765
#	55127
#	69145
#	83124
#	95239
#	109446
#	121711
#	135379
#	148064
#	162058
#	176051
#	190517
#	204647
#	217785
#	230838
#	244251
#	258045
#
# Disc length: 3601 seconds
#
# Revision: 0
# Processed by: cddbd v1.5.2PL0 Copyright (c) Steve Scherf et al.
# Submitted via: FairStars CD Ripper 1.80
#
DISCID=190e0f14
DTITLE=Various Artist - the Melotone Blues Story cd2
DYEAR=2015
DGENRE=Blues
TTITLE0=Josh White (Pinewood Tom) - No More Ball And Chain
TTITLE1=Leadbelly - Becky Deem, She Was A Gamblin' Girl
TTITLE2=Big Bill Broonzy - It's Too Late Now
TTITLE3=Leroy Carr - I Believe I'll Make A Change
TTITLE4=Blind Boy Fuller - Truckin' My Blues Away
TTITLE5=Walter Roland - Club Meeting Blues
TTITLE6=Sam Montgomery - Baby Please Don't Go
TTITLE7=Peetie Wheatstraw - Mistreated Love Blues
TTITLE8=Kid Prince Moore - Bug Juice Blues
TTITLE9=Lil Johnson - That Bonus Done Gone Thru
TTITLE10=Charley Jordan - Got Your Water On
TTITLE11=Blind Boy Fuller - I'm A Rattlesnakin' Daddy
TTITLE12=Josh White - Greenville Sheik
TTITLE13=Rev. Blind Gary Davis - I Belong To The Band, Hallelujah!
TTITLE14=George Noble - Seminole Blues 
TTITLE15=Washboard Sam - Don't Tear My Clothes
TTITLE16=Big Bill Broonzy - Tell Me What You Been Doing
TTITLE17=Buddy Moss - Mistreated Boy
TTITLE18=Walter Roland - Bad Dream Blues
TTITLE19=Lucille Bogan (Bessie Jackson) - Lonesome Midnight Blues
EXTD=
EXTT0=
EXTT1=
EXTT2=
EXTT3=
EXTT4=
EXTT5=
EXTT6=
EXTT7=
EXTT8=
EXTT9=
EXTT10=
EXTT11=
EXTT12=
EXTT13=
EXTT14=
EXTT15=
EXTT16=
EXTT17=
EXTT18=
EXTT19=
PLAYORDER=
